<?xml version="1.0" encoding="utf-8"?>
<!-- Generator: Adobe Illustrator 27.0.1, SVG Export Plug-In . SVG Version: 6.00 Build 0)  -->
<svg version="1.1" id="Ebene_1" xmlns="http://www.w3.org/2000/svg" xmlns:xlink="http://www.w3.org/1999/xlink" x="0px" y="0px"
	 width="16px" height="16px" viewBox="0 0 16 16" style="enable-background:new 0 0 16 16;" xml:space="preserve">
<style type="text/css">
	.st0{fill:#FFFFFF;}
</style>
<g>
	<path class="st0" d="M55.6,0l3.5,11.5h-1.8v1.2h1v2.8l-1.5-2h-2.6l-1.5,2v-2.8h1v-1.2h-1.8L55.6,0c-4.4,0-8,3.6-8,8s3.6,8,8,8
		s8-3.6,8-8S60.1,0,55.6,0z"/>
</g>
<g>
	<g>
		<path class="st0" d="M0,8c0,3.5,2.3,6.5,5.5,7.6v-1.8V13v-1.2H3L8,0C3.6,0,0,3.6,0,8z"/>
	</g>
	<g>
		<path class="st0" d="M9,13.8H7l-1.4,1.9C6.3,15.9,7.2,16,8,16s1.7-0.1,2.4-0.4L9,13.8z"/>
	</g>
	<g>
		<path class="st0" d="M8,0l5,11.8h-2.5V13v0.8v1.8C13.7,14.5,16,11.5,16,8C16,3.6,12.4,0,8,0z"/>
	</g>
</g>
<g>
	<g>
		<path class="st0" d="M31.7,13.8h-2.1l-1.4,1.9c0.8,0.2,1.6,0.4,2.4,0.4s1.7-0.1,2.4-0.4L31.7,13.8z"/>
	</g>
	<g>
		<path class="st0" d="M22.6,8c0,3.5,2.3,6.5,5.5,7.6v-1.8V13v-1.2h-2L30.6,0C26.2,0,22.6,3.6,22.6,8z"/>
	</g>
	<g>
		<path class="st0" d="M30.6,0l4.5,11.8h-2V13v0.8v1.8c3.2-1.1,5.5-4.1,5.5-7.6C38.6,3.6,35,0,30.6,0z"/>
	</g>
</g>
</svg>
