<?xml version="1.0" encoding="utf-8"?>
<!-- Generator: Adobe Illustrator 27.0.0, SVG Export Plug-In . SVG Version: 6.00 Build 0)  -->
<svg version="1.1" id="Ebene_1" xmlns="http://www.w3.org/2000/svg" xmlns:xlink="http://www.w3.org/1999/xlink" x="0px" y="0px"
	 viewBox="0 0 24 24" style="enable-background:new 0 0 24 24;" xml:space="preserve">
<style type="text/css">
	.st0{fill:none;}
</style>
<path class="st0" d="M0,0h24v24H0V0z"/>
<path class="st0" d="M0,0h24v24H0V0z"/>
<g>
	
		<image style="overflow:visible;opacity:0.5;" width="44" height="44" xlink:href="962CE334CD979BF9.png"  transform="matrix(1 0 0 1 -10 -10)">
	</image>
	<g>
		<path d="M2,12C2,6.5,6.5,2,12,2s10,4.5,10,10s-4.5,10-10,10S2,17.5,2,12z M12,18c3.3,0,6-2.7,6-6s-2.7-6-6-6s-6,2.7-6,6
			S8.7,18,12,18z"/>
	</g>
</g>
</svg>
